<mxfile host="app.diagrams.net" modified="2023-03-22T12:46:37.856Z" agent="5.0 (Macintosh; Intel Mac OS X 10_15_7) AppleWebKit/605.1.15 (KHTML, like Gecko) Version/16.3 Safari/605.1.15" etag="hMfyexKX9YXy5MnWjCR4" version="21.0.10" type="github">
  <diagram id="C5RBs43oDa-KdzZeNtuy" name="Page-1">
    <mxGraphModel dx="487" dy="1533" grid="1" gridSize="10" guides="1" tooltips="1" connect="1" arrows="1" fold="1" page="1" pageScale="1" pageWidth="827" pageHeight="1169" math="0" shadow="0">
      <root>
        <mxCell id="WIyWlLk6GJQsqaUBKTNV-0" />
        <mxCell id="WIyWlLk6GJQsqaUBKTNV-1" parent="WIyWlLk6GJQsqaUBKTNV-0" />
        <mxCell id="WIyWlLk6GJQsqaUBKTNV-2" value="" style="rounded=0;html=1;jettySize=auto;orthogonalLoop=1;fontSize=11;endArrow=block;endFill=0;endSize=8;strokeWidth=1;shadow=0;labelBackgroundColor=none;edgeStyle=orthogonalEdgeStyle;entryX=0.5;entryY=0;entryDx=0;entryDy=0;" parent="WIyWlLk6GJQsqaUBKTNV-1" source="WIyWlLk6GJQsqaUBKTNV-3" target="baCFZIg1WZ4Pk4-KRznF-3" edge="1">
          <mxGeometry relative="1" as="geometry">
            <mxPoint x="220" y="110" as="targetPoint" />
          </mxGeometry>
        </mxCell>
        <mxCell id="WIyWlLk6GJQsqaUBKTNV-3" value="SELF test" style="rounded=1;whiteSpace=wrap;html=1;fontSize=12;glass=0;strokeWidth=1;shadow=0;arcSize=50;" parent="WIyWlLk6GJQsqaUBKTNV-1" vertex="1">
          <mxGeometry x="160" y="-10" width="120" height="50" as="geometry" />
        </mxCell>
        <mxCell id="WIyWlLk6GJQsqaUBKTNV-5" value="Outside bounds" style="edgeStyle=orthogonalEdgeStyle;rounded=0;html=1;jettySize=auto;orthogonalLoop=1;fontSize=11;endArrow=block;endFill=0;endSize=8;strokeWidth=1;shadow=0;labelBackgroundColor=none;exitX=1;exitY=0;exitDx=0;exitDy=0;" parent="WIyWlLk6GJQsqaUBKTNV-1" source="WIyWlLk6GJQsqaUBKTNV-6" edge="1">
          <mxGeometry y="10" relative="1" as="geometry">
            <mxPoint as="offset" />
            <mxPoint x="110" y="250" as="targetPoint" />
            <Array as="points">
              <mxPoint x="200" y="270" />
              <mxPoint x="200" y="230" />
            </Array>
          </mxGeometry>
        </mxCell>
        <mxCell id="baCFZIg1WZ4Pk4-KRznF-14" style="edgeStyle=orthogonalEdgeStyle;rounded=0;orthogonalLoop=1;jettySize=auto;html=1;exitX=1;exitY=1;exitDx=0;exitDy=0;entryX=0.5;entryY=0;entryDx=0;entryDy=0;" edge="1" parent="WIyWlLk6GJQsqaUBKTNV-1" source="WIyWlLk6GJQsqaUBKTNV-6" target="baCFZIg1WZ4Pk4-KRznF-13">
          <mxGeometry relative="1" as="geometry">
            <mxPoint x="220" y="390" as="targetPoint" />
          </mxGeometry>
        </mxCell>
        <mxCell id="baCFZIg1WZ4Pk4-KRznF-15" value="left click" style="edgeLabel;html=1;align=center;verticalAlign=middle;resizable=0;points=[];" vertex="1" connectable="0" parent="baCFZIg1WZ4Pk4-KRznF-14">
          <mxGeometry x="0.2815" y="-4" relative="1" as="geometry">
            <mxPoint as="offset" />
          </mxGeometry>
        </mxCell>
        <mxCell id="WIyWlLk6GJQsqaUBKTNV-6" value="click on grid" style="rhombus;whiteSpace=wrap;html=1;shadow=0;fontFamily=Helvetica;fontSize=12;align=center;strokeWidth=1;spacing=6;spacingTop=-4;" parent="WIyWlLk6GJQsqaUBKTNV-1" vertex="1">
          <mxGeometry x="60" y="250" width="100" height="80" as="geometry" />
        </mxCell>
        <mxCell id="baCFZIg1WZ4Pk4-KRznF-4" style="edgeStyle=orthogonalEdgeStyle;rounded=0;orthogonalLoop=1;jettySize=auto;html=1;" edge="1" parent="WIyWlLk6GJQsqaUBKTNV-1" source="baCFZIg1WZ4Pk4-KRznF-3">
          <mxGeometry relative="1" as="geometry">
            <mxPoint x="110" y="250" as="targetPoint" />
          </mxGeometry>
        </mxCell>
        <mxCell id="baCFZIg1WZ4Pk4-KRznF-6" value="ship placement phase" style="edgeLabel;html=1;align=center;verticalAlign=middle;resizable=0;points=[];" vertex="1" connectable="0" parent="baCFZIg1WZ4Pk4-KRznF-4">
          <mxGeometry x="-0.1" relative="1" as="geometry">
            <mxPoint as="offset" />
          </mxGeometry>
        </mxCell>
        <mxCell id="baCFZIg1WZ4Pk4-KRznF-3" value="Generate blank grid to place ships upon, initialise pygame" style="rounded=0;whiteSpace=wrap;html=1;" vertex="1" parent="WIyWlLk6GJQsqaUBKTNV-1">
          <mxGeometry x="50" y="100" width="120" height="70" as="geometry" />
        </mxCell>
        <mxCell id="baCFZIg1WZ4Pk4-KRznF-7" value="" style="endArrow=classic;html=1;rounded=0;exitX=0.5;exitY=1;exitDx=0;exitDy=0;" edge="1" parent="WIyWlLk6GJQsqaUBKTNV-1" source="WIyWlLk6GJQsqaUBKTNV-6">
          <mxGeometry width="50" height="50" relative="1" as="geometry">
            <mxPoint x="180" y="390" as="sourcePoint" />
            <mxPoint x="110" y="410" as="targetPoint" />
          </mxGeometry>
        </mxCell>
        <mxCell id="baCFZIg1WZ4Pk4-KRznF-8" value="middle click" style="edgeLabel;html=1;align=center;verticalAlign=middle;resizable=0;points=[];" vertex="1" connectable="0" parent="baCFZIg1WZ4Pk4-KRznF-7">
          <mxGeometry x="-0.2667" relative="1" as="geometry">
            <mxPoint as="offset" />
          </mxGeometry>
        </mxCell>
        <mxCell id="baCFZIg1WZ4Pk4-KRznF-12" value="generate vertical ship from grid coordinate down" style="rounded=1;whiteSpace=wrap;html=1;" vertex="1" parent="WIyWlLk6GJQsqaUBKTNV-1">
          <mxGeometry x="65" y="410" width="90" height="90" as="geometry" />
        </mxCell>
        <mxCell id="baCFZIg1WZ4Pk4-KRznF-13" value="generate horizontal ship from grid coordinate" style="rounded=1;whiteSpace=wrap;html=1;" vertex="1" parent="WIyWlLk6GJQsqaUBKTNV-1">
          <mxGeometry x="170" y="410" width="120" height="60" as="geometry" />
        </mxCell>
        <mxCell id="baCFZIg1WZ4Pk4-KRznF-16" value="" style="endArrow=classic;html=1;rounded=0;exitX=0.5;exitY=1;exitDx=0;exitDy=0;" edge="1" parent="WIyWlLk6GJQsqaUBKTNV-1" source="baCFZIg1WZ4Pk4-KRznF-12">
          <mxGeometry width="50" height="50" relative="1" as="geometry">
            <mxPoint x="110" y="510" as="sourcePoint" />
            <mxPoint x="170" y="560" as="targetPoint" />
          </mxGeometry>
        </mxCell>
        <mxCell id="baCFZIg1WZ4Pk4-KRznF-17" value="" style="endArrow=classic;html=1;rounded=0;exitX=0.5;exitY=1;exitDx=0;exitDy=0;" edge="1" parent="WIyWlLk6GJQsqaUBKTNV-1" source="baCFZIg1WZ4Pk4-KRznF-13">
          <mxGeometry width="50" height="50" relative="1" as="geometry">
            <mxPoint x="230" y="520" as="sourcePoint" />
            <mxPoint x="170" y="560" as="targetPoint" />
          </mxGeometry>
        </mxCell>
        <mxCell id="baCFZIg1WZ4Pk4-KRznF-18" value="confirm position" style="rhombus;whiteSpace=wrap;html=1;" vertex="1" parent="WIyWlLk6GJQsqaUBKTNV-1">
          <mxGeometry x="130" y="660" width="80" height="80" as="geometry" />
        </mxCell>
        <mxCell id="baCFZIg1WZ4Pk4-KRznF-19" value="ship valid?" style="rhombus;whiteSpace=wrap;html=1;" vertex="1" parent="WIyWlLk6GJQsqaUBKTNV-1">
          <mxGeometry x="130" y="560" width="80" height="80" as="geometry" />
        </mxCell>
        <mxCell id="baCFZIg1WZ4Pk4-KRznF-20" value="" style="endArrow=classic;html=1;rounded=0;exitX=1;exitY=0;exitDx=0;exitDy=0;" edge="1" parent="WIyWlLk6GJQsqaUBKTNV-1" source="baCFZIg1WZ4Pk4-KRznF-19">
          <mxGeometry width="50" height="50" relative="1" as="geometry">
            <mxPoint x="190" y="550" as="sourcePoint" />
            <mxPoint x="310" y="350" as="targetPoint" />
            <Array as="points">
              <mxPoint x="310" y="520" />
            </Array>
          </mxGeometry>
        </mxCell>
        <mxCell id="baCFZIg1WZ4Pk4-KRznF-21" value="out of grid bounds&lt;br&gt;ship overlap&lt;br&gt;=&lt;br&gt;No" style="edgeLabel;html=1;align=center;verticalAlign=middle;resizable=0;points=[];" vertex="1" connectable="0" parent="baCFZIg1WZ4Pk4-KRznF-20">
          <mxGeometry x="0.1065" y="1" relative="1" as="geometry">
            <mxPoint y="34" as="offset" />
          </mxGeometry>
        </mxCell>
      </root>
    </mxGraphModel>
  </diagram>
</mxfile>
